# xmcd
#
# Track frame offsets:
#	150
#	9840
#	21720
#	38282
#	52097
#	63510
#	78615
#	101620
#	112965
#	127442
#	138897
#	151265
#	163887
#	176340
#	188640
#	204745
#
# Disc length: 2863
#
# Revision: 1
# Processed by: cddbd v1.5.1PL0 Copyright (c) Steve Scherf et al.
# Submitted via: CDex 1.40Beta9
# Normalized: r0:TDELIM( - )
#
DISCID=d80b2d10
DTITLE=Various Artist - Bonanza
DYEAR=1900
DGENRE=Country
TTITLE0=Lorne Green - Bonanza
TTITLE1=Johnny Cash - Ring Of Fire
TTITLE2=Kenny Rogers - Lucille
TTITLE3=Dave Dudley - Deep In The Heart Of Texas
TTITLE4=Jim Reeves - Adios Amigo
TTITLE5=Joan Kennedy - Candle In The Wind
TTITLE6=M.A.S.S. - Chi Mai
TTITLE7=Bill Monroe - Oronge Blossom Special
TTITLE8=Greyhounds - On The Road Again
TTITLE9=Hank Locklin - Send Me The Pillow You Dream On
TTITLE10=Freddy Fender - Vaya Con Dios
TTITLE11=Bobby Bare - Detroit City
TTITLE12=M.A.S.S. - The Good, The Bad And The Ugly
TTITLE13=Johnny Cash - I Walk The Line
TTITLE14=Billie Jo Spears - Blanket On A Ground
TTITLE15=Ralf Paulsen - Bonanza
EXTD=ID3G: 2
EXTT0=
EXTT1=
EXTT2=
EXTT3=
EXTT4=
EXTT5=
EXTT6=
EXTT7=
EXTT8=
EXTT9=
EXTT10=
EXTT11=
EXTT12=
EXTT13=
EXTT14=
EXTT15=
PLAYORDER=
